<mxfile host="app.diagrams.net" modified="2024-03-15T07:13:15.996Z" agent="Mozilla/5.0 (Windows NT 10.0; Win64; x64) AppleWebKit/537.36 (KHTML, like Gecko) Chrome/122.0.0.0 Safari/537.36" version="24.0.5" etag="5kpuYMKwq1aDL_z-7QXS" type="github">
  <diagram name="第 1 页" id="k8EcO_HaS88g-lADY9RN">
    <mxGraphModel>
      <root>
        <mxCell id="0" />
        <mxCell id="1" parent="0" />
      </root>
    </mxGraphModel>
  </diagram>
</mxfile>
